<svg xmlns="http://www.w3.org/2000/svg" viewBox="0 0 96 96" role="img" aria-label="Digesto">
  <rect width="96" height="96" rx="22" fill="#1b4d3e"/>
  <path d="M32 20h26l14 14v42a4 4 0 0 1-4 4H32a4 4 0 0 1-4-4V24a4 4 0 0 1 4-4Z" fill="#eeddcc"/>
  <path d="M58 20v10a4 4 0 0 0 4 4h10Z" fill="#d6865b"/>
  <rect x="36" y="44" width="26" height="4" rx="2" fill="#1b4d3e"/>
  <rect x="36" y="54" width="26" height="4" rx="2" fill="#1b4d3e"/>
  <rect x="36" y="64" width="14" height="4" rx="2" fill="#1b4d3e"/>
  <path d="M68 56q1.6 8 9.4 9.4-7.8 1.4-9.4 9.4-1.6-8-9.4-9.4 7.8-1.4 9.4-9.4Z" fill="#d6865b" stroke="#1b4d3e" stroke-width="3" paint-order="stroke" stroke-linejoin="round"/>
</svg>
